<?xml version="1.0" encoding="UTF-8"?>
<svg width="137px" height="41px" viewBox="0 0 137 41" version="1.1" xmlns="http://www.w3.org/2000/svg" xmlns:xlink="http://www.w3.org/1999/xlink">
    <!-- Generator: Sketch 46.2 (44496) - http://www.bohemiancoding.com/sketch -->
    <title>Group 4</title>
    <desc>Created with Sketch.</desc>
    <defs></defs>
    <g id="Symbols" stroke="none" stroke-width="1" fill="none" fill-rule="evenodd">
        <g id="Footer" transform="translate(-90.000000, -36.000000)" fill="#FFFFFF">
            <g id="Group-4">
                <g transform="translate(90.000000, 36.000000)">
                    <g id="isotipo">
                        <path d="M14.4999733,40.65522 C11.3454732,32.7899688 10.2331995,24.6468851 10.2331995,16.2459822 C10.2331995,12.624741 10.4602409,8.99643622 11.047338,5.42463977 L14.0573572,5.42463977 C13.3303659,8.82220225 13.1044711,12.3057044 13.1044711,15.7750796 C13.1044711,23.0658295 13.9851167,30.8180641 16.0411032,37.8415768 C18.0947963,30.8180641 18.9765885,23.0658295 18.9765885,15.7750796 C18.9765885,12.3057044 18.7506938,8.82220225 18.0237025,5.42463977 L21.032575,5.42463977 C21.6219654,8.99643622 21.8455668,12.624741 21.8455668,16.2459822 C21.8455668,24.6468851 20.7355864,32.7899688 17.5810863,40.65522 L14.4999733,40.65522 Z" id="Fill-1"></path>
                        <g id="left" transform="translate(0.345504, 0.039868)">
                            <path d="M4.958717,14.0546776 C4.68695527,13.8015674 4.26497925,13.8215808 4.01615099,14.1017679 C3.76732274,14.3819549 3.78796287,14.8151854 4.05857793,15.07065 C4.33263301,15.3261147 4.75460904,15.3049241 5.00343729,15.0259143 C5.25111887,14.74455 5.23162541,14.3113195 4.958717,14.0546776" id="circle-15"></path>
                            <path d="M4.958717,16.1849234 C4.68695527,15.930636 4.26497925,15.9518266 4.01615099,16.2320136 C3.76732274,16.5122007 3.78796287,16.9454311 4.05857793,17.2008958 C4.33263301,17.4563605 4.75460904,17.4351699 5.00343729,17.1561601 C5.25111887,16.8747957 5.23162541,16.4415653 4.958717,16.1849234" id="circle-14"></path>
                            <path d="M3.54544133,17.8470919 C3.27253292,17.5916273 2.85170357,17.6128179 2.60287532,17.8930049 C2.35290039,18.1743693 2.37354052,18.6064224 2.64530226,18.8618871 C2.91821066,19.1173518 3.33904001,19.0973384 3.59016161,18.8171514 C3.83669652,18.5369643 3.81834973,18.1025566 3.54544133,17.8470919" id="circle-13"></path>
                            <path d="M5.37977569,23.403743 C5.10801395,23.1494556 4.68603793,23.1694689 4.43720968,23.449656 C4.18838143,23.729843 4.20902156,24.1642507 4.47963662,24.4197154 C4.7536917,24.6740028 5.17566772,24.6539895 5.42449597,24.3738024 C5.67217755,24.0936153 5.65268409,23.6592076 5.37977569,23.403743" id="circle-12"></path>
                            <path d="M5.45144281,25.560477 C5.16706766,25.3203167 4.74623832,25.3626979 4.51231682,25.6558348 C4.27724866,25.9489717 4.31852892,26.3810248 4.60290407,26.6211852 C4.88957256,26.8625228 5.30810856,26.8189643 5.54317673,26.5270047 C5.77595155,26.2338678 5.73581796,25.8018146 5.45144281,25.560477" id="circle-11"></path>
                            <path d="M4.09871152,27.2886897 C3.81204303,27.0532384 3.39121368,27.1026831 3.16187888,27.3981745 C2.93139741,27.6960204 2.97841105,28.1257191 3.26507954,28.3623477 C3.55518806,28.5989762 3.9760174,28.5495315 4.2053522,28.2528628 C4.434687,27.9561941 4.38767336,27.5253182 4.09871152,27.2886897" id="circle-10"></path>
                            <path d="M3.96432133,22.0759153 C3.6925596,21.8216279 3.27058357,21.8428185 3.02175532,22.1230055 C2.77292707,22.4043699 2.7935672,22.836423 3.06532893,23.0918877 C3.33823734,23.3473524 3.76021336,23.3261618 4.00904162,23.0459747 C4.25786987,22.7657876 4.23722974,22.3325572 3.96432133,22.0759153" id="circle-9"></path>
                            <path d="M6.74592306,32.6642786 C6.44434781,32.4441317 6.02925183,32.5171216 5.81482379,32.82674 C5.59924909,33.134004 5.67034287,33.5625254 5.96962478,33.7838496 C6.27120004,34.0028194 6.68744269,33.9298295 6.9030174,33.6213882 C7.11515208,33.3141243 7.04635164,32.8844256 6.74592306,32.6642786" id="circle-8"></path>
                            <path d="M6.9026734,35.0492827 C6.59536477,34.8385538 6.18141546,34.9244935 5.97501415,35.238821 C5.76975951,35.5531485 5.85232003,35.9793154 6.15962866,36.1900443 C6.46579061,36.4007733 6.87973992,36.3160108 7.08614123,36.000506 C7.2902492,35.6861785 7.20998202,35.2600117 6.9026734,35.0492827" id="circle-7"></path>
                            <path d="M5.16924635,31.5063291 C4.86881776,31.2861821 4.45257511,31.3603493 4.23814708,31.6687905 C4.02486572,31.978409 4.09481283,32.4057531 4.39638808,32.6247228 C4.69681667,32.8448698 5.11305932,32.7718799 5.32863403,32.4634387 C5.54076871,32.1538202 5.47196827,31.7252988 5.16924635,31.5063291" id="circle-6"></path>
                            <path d="M1.93975376,10.8373531 C1.77807273,10.497126 1.38017686,10.3546779 1.0476414,10.5206711 C0.71510595,10.685487 0.576358399,11.0963496 0.736892756,11.4365767 C0.898573787,11.7779811 1.29646966,11.9204292 1.63015178,11.754436 C1.96268724,11.5884428 2.10143479,11.1775803 1.93975376,10.8373531" id="circle-5"></path>
                            <path d="M1.39095559,8.70239832 C1.37146213,8.32449896 1.05956681,8.03371659 0.690337792,8.05137544 C0.321108772,8.07021154 0.0367336257,8.39160259 0.0562270833,8.76950195 C0.074573867,9.14975582 0.387615863,9.43936094 0.754551535,9.42170209 C1.12492723,9.40168873 1.40930238,9.08147494 1.39095559,8.70239832" id="circle-4"></path>
                            <path d="M1.47168144,6.26112136 C1.54162855,5.88910829 1.30312037,5.53122229 0.938478041,5.45940964 C0.576129064,5.3899515 0.226393501,5.63364361 0.158739737,6.00565669 C0.0899392982,6.37884702 0.327300811,6.73555576 0.690796462,6.80736842 C1.05429211,6.87682655 1.40173433,6.63313444 1.47168144,6.26112136" id="circle-3"></path>
                            <path d="M2.20956614,4.07330775 C2.39532733,3.74720768 2.28868665,3.32692708 1.96876461,3.13503426 C1.65113592,2.94431869 1.24062663,3.05380355 1.05486545,3.37990362 C0.869104265,3.70835821 0.976891619,4.12628429 1.29452031,4.31817711 C1.612149,4.51006994 2.02151161,4.40058507 2.20956614,4.07330775" id="circle-2"></path>
                            <path d="M3.2901917,12.4669117 C3.01728329,12.2126243 2.59645394,12.2326376 2.34533234,12.5128247 C2.09650409,12.7930117 2.11714422,13.2262422 2.39005263,13.4817068 C2.66296103,13.7371715 3.08379038,13.7159809 3.33261864,13.4369711 C3.58144689,13.1556068 3.56195343,12.7223763 3.2901917,12.4669117" id="circle-1"></path>
                            <path d="M5.96423541,2.0454833 C6.1763701,1.80767747 6.53527905,1.79119588 6.76805387,2.00781109 C6.99968201,2.2244263 7.01688212,2.59408486 6.80360076,2.83306795 C6.59261275,3.07087377 6.23255712,3.08853262 5.99978231,2.87074016 C5.76815416,2.65294769 5.75095405,2.28446638 5.96423541,2.0454833 M11.3375497,32.575278 L7.52141867,29.8146114 C7.2164034,29.5638557 7.16709641,29.1070802 7.41133797,28.7951072 L9.96268757,25.7295311 C10.4901576,25.1350165 10.4488773,24.2155791 9.86980698,23.6728638 L6.6740266,20.6849866 C6.38735811,20.4153949 6.36671798,19.9562648 6.62930632,19.6607734 L9.54185822,16.3821139 C10.0693282,15.7887765 10.0291947,14.8681619 9.4501243,14.3266239 L5.220044,10.358092 C4.64212032,9.8177312 4.65473373,8.93832054 5.12716341,8.30377925 L9.53153815,2.26680753 C9.96383424,1.68524279 9.93746074,1.00478849 9.454711,0.553899218 C9.21390946,0.327865956 8.73918644,0.0653377399 7.87000756,0.160695522 C3.71560774,0.619825586 0.929189982,4.35879247 1.38900625,8.68285586 C1.61834104,10.853717 2.37170584,11.6342381 2.78680182,12.0215555 L5.97226213,15.0070782 C6.26122397,15.2778472 6.2818641,15.7358 6.01812909,16.0312914 L3.10672386,19.309951 C2.58040051,19.9044655 2.6205341,20.8239029 3.19845778,21.3654409 L6.39309148,24.3556726 C6.68205332,24.6252644 6.70269345,25.0843945 6.43895844,25.3798859 L3.87499543,28.6785588 C3.38651231,29.3060365 3.48512628,30.2207649 4.09630351,30.7234534 L7.91816787,33.5229696 C8.22662317,33.7701935 8.28051685,34.2257918 8.03856864,34.5412965 L6.39194481,37.0676891 C5.93671524,37.7210665 6.08348951,38.6299086 6.71874689,39.0984567 C7.35515095,39.5658276 8.24038326,39.416316 8.6967595,38.7617613 L11.5783512,34.6178182 C12.0599543,33.9844542 11.9533136,33.0720803 11.3375497,32.575278" id="Fill-63"></path>
                        </g>
                        <g id="right" transform="translate(19.718911, 0.039868)">
                            <path d="M7.07868186,14.0546776 C7.35159027,13.8015674 7.77241962,13.8215808 8.02239454,14.1017679 C8.2712228,14.3819549 8.25058266,14.8151854 7.97882093,15.07065 C7.70591253,15.3261147 7.2839365,15.3049241 7.03396158,15.0259143 C6.78742667,14.74455 6.80577345,14.3113195 7.07868186,14.0546776" id="circle-30"></path>
                            <path d="M7.07868186,16.1849234 C7.35159027,15.930636 7.77241962,15.9518266 8.02239454,16.2320136 C8.2712228,16.5122007 8.25058266,16.9454311 7.97882093,17.2008958 C7.70591253,17.4563605 7.2839365,17.4351699 7.03396158,17.1561601 C6.78742667,16.8747957 6.80577345,16.4415653 7.07868186,16.1849234" id="circle-29"></path>
                            <path d="M8.49184287,17.8470919 C8.76475128,17.5916273 9.18558063,17.6128179 9.43555555,17.8930049 C9.68438381,18.1743693 9.66489035,18.6064224 9.39198194,18.8618871 C9.11907353,19.1173518 8.69824419,19.0973384 8.44826926,18.8171514 C8.20058768,18.5369643 8.22008114,18.1025566 8.49184287,17.8470919" id="circle-28"></path>
                            <path d="M6.65762318,23.403743 C6.93053158,23.1494556 7.35136093,23.1694689 7.60018919,23.449656 C7.85016411,23.729843 7.82952398,24.1642507 7.55776225,24.4197154 C7.28485384,24.6740028 6.86287782,24.6539895 6.61290289,24.3738024 C6.36636799,24.0936153 6.38471477,23.6592076 6.65762318,23.403743" id="circle-27"></path>
                            <path d="M6.58595605,25.560477 C6.87147787,25.3203167 7.29116055,25.3626979 7.52622871,25.6558348 C7.76015021,25.9489717 7.72001662,26.3810248 7.4344948,26.6211852 C7.14897298,26.8625228 6.7292903,26.8189643 6.49422213,26.5270047 C6.26144732,26.2338678 6.30158091,25.8018146 6.58595605,25.560477" id="circle-26"></path>
                            <path d="M7.93868734,27.2886897 C8.22650251,27.0532384 8.64618519,27.1026831 8.87666666,27.3981745 C9.10714813,27.6960204 9.06013449,28.1257191 8.77231932,28.3623477 C8.48335748,28.5989762 8.06252813,28.5495315 7.83319334,28.2528628 C7.60271187,27.9561941 7.6497255,27.5253182 7.93868734,27.2886897" id="circle-25"></path>
                            <path d="M8.07307753,22.0759153 C8.34598594,21.8216279 8.76681529,21.8428185 9.01564354,22.1230055 C9.2644718,22.4043699 9.24497834,22.836423 8.97206993,23.0918877 C8.69916152,23.3473524 8.2771855,23.3261618 8.02835725,23.0459747 C7.78182234,22.7657876 7.80016913,22.3325572 8.07307753,22.0759153" id="circle-24"></path>
                            <path d="M5.29262247,32.6642786 C5.59305106,32.4441317 6.00814704,32.5171216 6.22372174,32.82674 C6.43814978,33.134004 6.36820266,33.5625254 6.06777408,33.7838496 C5.76619883,34.0028194 5.34995617,33.9298295 5.13438147,33.6213882 C4.92339345,33.3141243 4.99104722,32.8844256 5.29262247,32.6642786" id="circle-23"></path>
                            <path d="M5.13472547,35.0492827 C5.44318077,34.8385538 5.8559834,34.9244935 6.06238472,35.238821 C6.26763936,35.5531485 6.18507883,35.9793154 5.87777021,36.1900443 C5.57160825,36.4007733 5.15765895,36.3160108 4.95240431,36.000506 C4.74714966,35.6861785 4.82741684,35.2600117 5.13472547,35.0492827" id="circle-22"></path>
                            <path d="M6.86815252,31.5063291 C7.1685811,31.2861821 7.58482375,31.3603493 7.79925179,31.6687905 C8.01253315,31.978409 7.94258603,32.4057531 7.64101078,32.6247228 C7.3405822,32.8448698 6.92433954,32.7718799 6.70876484,32.4634387 C6.49777682,32.1538202 6.56657726,31.7252988 6.86815252,31.5063291" id="circle-21"></path>
                            <path d="M10.0976451,10.8373531 C10.2593261,10.497126 10.6583687,10.3546779 10.9909041,10.5206711 C11.3222929,10.685487 11.4621871,11.0963496 11.3005061,11.4365767 C11.1388251,11.7779811 10.7409292,11.9204292 10.4083938,11.754436 C10.0747116,11.5884428 9.93596408,11.1775803 10.0976451,10.8373531" id="circle-20"></path>
                            <path d="M10.6463286,8.70239832 C10.6658221,8.32449896 10.9777174,8.03371659 11.3469464,8.05137544 C11.7173221,8.07021154 12.0016972,8.39160259 11.9822038,8.76950195 C11.963857,9.14975582 11.650815,9.43936094 11.2827327,9.42170209 C10.9135036,9.40168873 10.6291285,9.08147494 10.6463286,8.70239832" id="circle-19"></path>
                            <path d="M10.5657174,6.26112136 C10.4957703,5.88910829 10.7354252,5.53122229 11.0989208,5.45940964 C11.4612698,5.3899515 11.8110054,5.63364361 11.8798058,6.00565669 C11.9486062,6.37884702 11.7100981,6.73555576 11.3477491,6.80736842 C10.9842534,6.87682655 10.6356645,6.63313444 10.5657174,6.26112136" id="circle-18"></path>
                            <path d="M9.82886473,4.07330775 C9.64310354,3.74720768 9.7508909,3.32692708 10.0685196,3.13503426 C10.3861483,2.94431869 10.7966576,3.05380355 10.9824187,3.37990362 C11.1693266,3.70835821 11.0615393,4.12628429 10.7427639,4.31817711 C10.4251352,4.51006994 10.0157726,4.40058507 9.82886473,4.07330775" id="circle-17"></path>
                            <path d="M8.74835384,12.4669117 C9.02126224,12.2126243 9.44323827,12.2326376 9.69206652,12.5128247 C9.94089477,12.7930117 9.92025464,13.2262422 9.64734624,13.4817068 C9.3755845,13.7371715 8.95360848,13.7159809 8.70478023,13.4369711 C8.45595197,13.1556068 8.47659211,12.7223763 8.74835384,12.4669117" id="circle-16"></path>
                            <path d="M6.03727256,2.87074016 C5.80449774,3.08853262 5.44444211,3.07087377 5.2334541,2.83306795 C5.02017274,2.59408486 5.03851952,2.2244263 5.27014766,2.00781109 C5.50177581,1.79119588 5.86297811,1.80767747 6.07396612,2.0454833 C6.28610081,2.28446638 6.2689007,2.65294769 6.03727256,2.87074016 M4.16819397,0.160695522 C3.29786843,0.0653377399 2.8231454,0.327865956 2.58349054,0.553899218 C2.09959412,1.00478849 2.07322062,1.68524279 2.50666338,2.26680753 L6.91103813,8.30377925 C7.38232113,8.93832054 7.39722789,9.8177312 6.81930421,10.358092 L2.58693056,14.3266239 C2.0078602,14.8681619 1.96657994,15.7887765 2.49404997,16.3832911 L5.40889522,19.6607734 C5.67263023,19.9562648 5.65084343,20.4165721 5.36302826,20.6849866 L2.16724788,23.6728638 C1.58817753,24.2155791 1.54689726,25.1350165 2.07551397,25.7295311 L4.62686356,28.7951072 C4.86995845,29.1070802 4.82065147,29.5638557 4.51563619,29.8146114 L0.700651868,32.575278 C0.0848879427,33.0720803 -0.0228994111,33.9844542 0.459850333,34.6178182 L3.34029536,38.7629386 C3.79781828,39.416316 4.68190391,39.5658276 5.31830797,39.0984567 C5.95471203,38.6299086 6.10263297,37.7210665 5.64511006,37.0676891 L3.9996329,34.5412965 C3.75768469,34.2257918 3.81157837,33.7701935 4.12003367,33.5229696 L7.94075136,30.7234534 C8.55192859,30.2207649 8.65054255,29.3060365 8.16320611,28.6785588 L5.59809642,25.3798859 C5.33665476,25.0843945 5.35614821,24.6252644 5.64511006,24.3556726 L8.83859708,21.3654409 C9.41652076,20.8239029 9.45665435,19.9044655 8.930331,19.309951 L6.01892577,16.0312914 C5.75633743,15.7358 5.77697756,15.2778472 6.06479273,15.0082554 L9.25139971,12.0215555 C9.66534902,11.6342381 10.4198605,10.853717 10.650342,8.68285586 C11.1090116,4.35879247 8.32144712,0.619825586 4.16819397,0.160695522" id="Fill-66"></path>
                        </g>
                    </g>
                    <path d="M116.83008,14.3062783 L116.83008,6.7541774 L118.87804,6.7541774 C119.430736,6.7541774 119.91578,6.816572 120.314822,6.90368898 C120.718451,7.00493305 121.076214,7.15091286 121.358295,7.353401 C121.833018,7.67950107 122.203394,8.13627662 122.471716,8.69076446 C122.745771,9.24760682 122.871905,9.86331201 122.871905,10.5367028 C122.871905,11.1971437 122.745771,11.8104944 122.471716,12.3861729 C122.203394,12.9430152 121.833018,13.3833092 121.358295,13.7211818 C121.076214,13.9248472 120.718451,14.0720043 120.314822,14.1744256 C119.91578,14.2615426 119.430736,14.3062783 118.87804,14.3062783 L116.83008,14.3062783 Z M120.688638,14.7265589 C121.164507,14.5970607 121.57387,14.3933953 121.928192,14.112031 C122.462542,13.703523 122.871905,13.1925936 123.168894,12.5615841 C123.472762,11.9317518 123.616096,11.2395249 123.616096,10.5225757 C123.616096,9.80327193 123.472762,9.12870391 123.168894,8.48356731 C122.871905,7.8549123 122.462542,7.34162843 121.928192,6.9331204 C121.57387,6.65293333 121.164507,6.44691343 120.701251,6.31741521 C120.243728,6.20204407 119.703645,6.12552239 119.046601,6.12552239 L116.120289,6.12552239 L116.120289,14.9325788 L119.046601,14.9325788 C119.687591,14.9325788 120.234555,14.8595889 120.688638,14.7265589 L120.688638,14.7265589 Z M108.420373,11.4290633 L109.982143,7.62181549 L111.523273,11.4290633 L108.420373,11.4290633 Z M109.836515,6.46104051 L106.310493,14.9325788 L106.996204,14.9325788 L108.196771,12.0023872 L111.745727,12.0023872 L112.950882,14.9325788 L113.636593,14.9325788 L110.109424,6.46104051 L109.836515,6.46104051 Z M98.244788,14.3062783 L98.244788,6.7541774 L100.285868,6.7541774 C100.842005,6.7541774 101.325901,6.816572 101.72265,6.90368898 C102.129719,7.00493305 102.482895,7.15091286 102.768417,7.353401 C103.241993,7.67950107 103.612369,8.13627662 103.887571,8.69076446 C104.153599,9.24760682 104.282027,9.86331201 104.282027,10.5367028 C104.282027,11.1971437 104.153599,11.8104944 103.887571,12.3861729 C103.612369,12.9430152 103.241993,13.3833092 102.768417,13.7211818 C102.482895,13.9248472 102.129719,14.0720043 101.72265,14.1744256 C101.325901,14.2615426 100.842005,14.3062783 100.285868,14.3062783 L98.244788,14.3062783 Z M102.097613,14.7265589 C102.567749,14.5970607 102.969085,14.3933953 103.341754,14.112031 C103.871517,13.703523 104.282027,13.1925936 104.583602,12.5615841 C104.88403,11.9317518 105.022778,11.2395249 105.022778,10.5225757 C105.022778,9.80327193 104.88403,9.12870391 104.583602,8.48356731 C104.282027,7.8549123 103.871517,7.34162843 103.341754,6.9331204 C102.969085,6.65293333 102.567749,6.44691343 102.109079,6.31741521 C101.65729,6.20204407 101.114913,6.12552239 100.459015,6.12552239 L97.5166501,6.12552239 L97.5166501,14.9325788 L100.459015,14.9325788 C101.09886,14.9325788 101.64009,14.8595889 102.097613,14.7265589 L102.097613,14.7265589 Z M93.6202519,14.9337561 L94.3438032,14.9337561 L94.3438032,6.12552239 L93.6202519,6.12552239 L93.6202519,14.9337561 Z M90.8865811,12.6463466 C90.8865811,12.3555642 90.8361275,12.0777316 90.7524203,11.8104944 C90.6492196,11.5479662 90.5104721,11.3125149 90.3338843,11.1100267 C90.0644159,10.8015855 89.5312125,10.4813717 88.7617943,10.1564489 C88.6780871,10.1140677 88.6219,10.0952316 88.5794731,10.0658001 C87.876562,9.75971343 87.4236257,9.49718522 87.2229578,9.24760682 C87.0073831,9.01568728 86.9064758,8.69076446 86.9064758,8.31051059 C86.9064758,7.8384307 87.0612768,7.44404975 87.3903722,7.12148145 C87.7194676,6.816572 88.1345636,6.65293333 88.6448335,6.65293333 C88.9601689,6.65293333 89.2777976,6.71061891 89.5896929,6.82599005 C89.923375,6.94371571 90.2478837,7.13796304 90.605646,7.38518692 L90.605646,6.59524776 C90.2776973,6.40335494 89.9635086,6.25737512 89.6481732,6.1549538 C89.3339846,6.07019133 89.0071825,6.00661947 88.6780871,6.00661947 C87.9488024,6.00661947 87.3639987,6.22794371 86.9064758,6.66823767 C86.4478062,7.10735437 86.2219114,7.66655124 86.2219114,8.33523298 C86.2219114,8.89325259 86.3652457,9.3512054 86.6668209,9.70320512 C86.9649561,10.0540276 87.5199463,10.4072045 88.3352315,10.7521407 C89.1218499,11.0947224 89.6206531,11.3878593 89.8373745,11.6350832 C90.0644159,11.8999659 90.1595898,12.2248887 90.1595898,12.6204469 C90.1595898,13.1619849 90.0082289,13.58462 89.6756934,13.9060111 C89.3660914,14.2168068 88.9188886,14.378091 88.3650451,14.378091 C88.0359496,14.378091 87.675894,14.2886195 87.3341852,14.1391079 C86.9649561,13.98371 86.5934338,13.7470814 86.1943912,13.4245131 L86.1943912,14.2733151 C86.5647669,14.5405524 86.9202359,14.7265589 87.2802915,14.8595889 C87.6483738,14.9879099 88.0084295,15.0503045 88.3788052,15.0503045 C89.1103832,15.0503045 89.7055069,14.8360438 90.1779366,14.378091 C90.6492196,13.9248472 90.8865811,13.3515232 90.8865811,12.6463466 L90.8865811,12.6463466 Z M78.728397,6.72827775 L80.1537127,6.72827775 C80.7947035,6.72827775 81.2808932,6.85777598 81.6386555,7.15091286 C81.9803644,7.43109993 82.1500721,7.82548088 82.1500721,8.33523298 C82.1500721,8.7060688 82.0824183,9.02510533 81.9264707,9.27939275 C81.767083,9.54427548 81.5388949,9.73263653 81.2224129,9.87273006 C81.0549985,9.950429 80.8520372,10.0092918 80.5963289,10.0540276 C80.3337405,10.0799272 79.8922711,10.0952316 79.255867,10.0952316 L78.728397,10.0952316 L78.728397,6.72827775 Z M78.728397,10.6979869 L79.4186947,10.6979869 C79.9106178,10.6979869 80.2729668,10.7415454 80.5103283,10.8015855 C80.7545699,10.8569166 80.9540912,10.9793512 81.1146255,11.1371036 C81.2224129,11.2560065 81.3680405,11.4455448 81.5652684,11.7245547 C81.7521762,11.9894374 81.9941245,12.3402598 82.2509794,12.7687812 L83.6074947,14.9325788 L84.376913,14.9325788 L82.0354047,11.2277524 C81.9367908,11.0664682 81.8209767,10.9181339 81.710896,10.8015855 C81.5813218,10.6838598 81.4368409,10.5802613 81.2808932,10.4813717 C81.8209767,10.3024287 82.2280459,10.0363687 82.495221,9.67141919 C82.7681294,9.31706496 82.8954102,8.86499844 82.8954102,8.33523298 C82.8954102,7.62181549 82.6649287,7.0767457 82.182179,6.69649183 C81.6925492,6.31741521 81.0102782,6.12552239 80.1135791,6.12552239 L78.0541527,6.12552239 L78.0541527,14.9325788 L78.728397,14.9325788 L78.728397,10.6979869 Z M75.02808,14.3310007 L71.0170145,14.3310007 L71.0170145,10.7521407 L74.7987452,10.7521407 L74.7987452,10.1882348 L71.0170145,10.1882348 L71.0170145,6.69649183 L74.9294661,6.69649183 L74.9294661,6.12552239 L70.3301568,6.12552239 L70.3301568,14.9325788 L75.02808,14.9325788 L75.02808,14.3310007 Z M64.6919608,15.0785586 L68.2913704,6.12552239 L67.5620858,6.12552239 L64.6334804,13.5163392 L61.7392753,6.12552239 L60.9790305,6.12552239 L64.5899068,15.0785586 L64.6919608,15.0785586 Z M57.7970102,14.9325788 L58.5262948,14.9325788 L58.5262948,6.12552239 L57.7970102,6.12552239 L57.7970102,14.9325788 Z M47.7716396,7.02023738 L54.0542663,14.8019033 L54.6837904,14.8019033 L54.6837904,6.00661947 L54.0072527,6.00661947 L54.0072527,13.6705598 L47.8003065,6.00661947 L47.0870753,6.00661947 L47.0870753,14.8019033 L47.7716396,14.8019033 L47.7716396,7.02023738 Z M40.0189769,15.7119227 C41.245918,15.7119227 42.2194442,15.3128327 42.9384088,14.5264253 C43.64476,13.7341316 44.0185757,12.6628281 44.0185757,11.3278192 L44.0185757,5.50746269 L43.2009971,5.50746269 L43.2009971,11.3737322 C43.2009971,12.4426812 42.9143287,13.2914832 42.3513117,13.9248472 C41.7619213,14.5535022 40.9902097,14.878425 40.0189769,14.878425 C39.0488907,14.878425 38.2760324,14.5535022 37.7049888,13.9248472 C37.1201851,13.2914832 36.8312232,12.4426812 36.8312232,11.3737322 L36.8312232,5.50746269 L36.0526316,5.50746269 L36.0526316,11.3278192 C36.0526316,12.675778 36.4046605,13.7470814 37.1201851,14.5264253 C37.8345629,15.3128327 38.8069425,15.7119227 40.0189769,15.7119227 L40.0189769,15.7119227 Z M84.7071551,29.0478851 C84.4652069,29.6223864 84.1384048,30.1356702 83.6934953,30.5783187 C83.237119,31.0303852 82.7211158,31.3859167 82.1661255,31.6013547 C81.5813218,31.8332742 80.9804647,31.9533544 80.3222738,31.9533544 C79.6824297,31.9533544 79.0815726,31.8332742 78.4933288,31.6013547 C77.9119651,31.3529535 77.4131619,31.0127264 76.9716924,30.5783187 C76.5290763,30.1356702 76.1839274,29.6223864 75.9557393,29.0478851 C75.7137911,28.4816247 75.5991237,27.8918192 75.5991237,27.2478598 C75.5991237,26.6192048 75.7137911,26.0152722 75.9557393,25.4289984 C76.1988342,24.858029 76.5290763,24.3612267 76.9716924,23.9209328 C77.4383887,23.4782843 77.9578321,23.1298163 78.5357557,22.880238 C79.1090927,22.6424321 79.7088032,22.5258837 80.3222738,22.5258837 C80.9678512,22.5258837 81.5652684,22.6424321 82.1351654,22.880238 C82.709649,23.1121575 83.2199189,23.4653345 83.6682685,23.9209328 C84.1384048,24.3883036 84.4812603,24.9004102 84.7209152,25.4737342 C84.9468099,26.0293993 85.062624,26.6192048 85.062624,27.2478598 C85.062624,27.8918192 84.9468099,28.4816247 84.7071551,29.0478851 L84.7071551,29.0478851 Z M85.5935341,22.1291483 C84.8929163,21.4451622 84.0925378,20.9307011 83.1969855,20.5645743 C82.2807929,20.2113973 81.3279069,20.0230362 80.3222738,20.0230362 C79.3395742,20.0230362 78.4004482,20.2113973 77.4980158,20.5645743 C76.5978767,20.9153967 75.7825915,21.4451622 75.0888538,22.1291483 C74.3870893,22.7907665 73.8458592,23.568933 73.4571367,24.4506982 C73.086761,25.3277544 72.8883864,26.2507235 72.8883864,27.1878198 C72.8883864,28.170829 73.0730009,29.1244068 73.4433766,30.0038175 C73.8137523,30.8832281 74.3595691,31.6755218 75.0888538,32.3771667 C75.7688314,33.0364304 76.5715032,33.5685504 77.4842557,33.9311454 C78.3832481,34.2831451 79.3395742,34.4703289 80.3222738,34.4703289 C81.3279069,34.4703289 82.2807929,34.296095 83.1797853,33.9440952 C84.0799244,33.5826775 84.8780095,33.0682163 85.6084408,32.3771667 C86.3102053,31.7025987 86.8376753,30.9232549 87.2229578,30.0626803 C87.5956268,29.1844469 87.777948,28.257946 87.777948,27.3031909 C87.777948,26.294282 87.5956268,25.3560085 87.2355712,24.4942567 C86.8594621,23.6113143 86.3102053,22.8190206 85.5935341,22.1291483 L85.5935341,22.1291483 Z M130.066138,31.8674146 L130.066138,28.3886215 L136.576952,28.3886215 L136.576952,25.9587639 L130.066138,25.9587639 L130.066138,22.6165325 L136.779914,22.6165325 L136.779914,20.1996247 L127.31412,20.1996247 L127.31412,34.2831451 L136.995488,34.2831451 L136.995488,31.8674146 L130.066138,31.8674146 Z M123.141373,28.845397 C123.127613,29.7518846 122.846678,30.4276299 122.213714,30.9656361 C121.602537,31.4965788 120.772345,31.795602 119.687591,31.795602 C119.046601,31.795602 118.49161,31.6755218 118.018034,31.4718564 C117.530698,31.263482 117.119042,30.9409137 116.760133,30.5182786 C116.581252,30.2969544 116.447091,30.0356034 116.379437,29.7236304 C116.294583,29.418721 116.246423,28.8300927 116.246423,27.9789362 L116.246423,20.1360529 L113.69278,20.1360529 L113.69278,28.0566351 C113.69278,29.1385339 113.762727,29.9449547 113.923261,30.5182786 C114.079209,31.0774755 114.332624,31.5884048 114.704146,32.0392941 C115.293537,32.7892065 116.005621,33.3460489 116.86104,33.7392526 C117.707285,34.1206837 118.659025,34.3125765 119.687591,34.3125765 C121.424802,34.3125765 122.886812,33.8157743 124.001379,32.8198152 C125.129706,31.8332742 125.70075,30.4888472 125.681256,28.9042598 L125.681256,20.1360529 L123.141373,20.1360529 L123.141373,28.845397 Z M109.51086,29.0384671 C109.266618,29.6223864 108.93867,30.1509746 108.49376,30.5912685 L108.48,30.6042183 C108.022477,31.0904253 107.508767,31.437716 106.953777,31.6884716 C106.379293,31.923923 105.783023,32.0510667 105.154645,32.0510667 C104.526268,32.0510667 103.936878,31.923923 103.354367,31.6755218 C102.768417,31.4129936 102.27076,31.0598166 101.822411,30.6042183 L101.822411,30.5912685 C101.383235,30.1509746 101.043819,29.6223864 100.815631,29.0384671 C100.569096,28.4498388 100.459015,27.8364881 100.459015,27.1878198 C100.459015,26.5320878 100.569096,25.9140281 100.815631,25.3159818 C101.043819,24.7285308 101.383235,24.2152469 101.814384,23.7702439 C102.28452,23.3028731 102.79479,22.9520506 103.372714,22.7048267 C103.957518,22.4517166 104.541175,22.3386999 105.154645,22.3386999 C105.783023,22.3386999 106.379293,22.4517166 106.953777,22.7048267 C107.522527,22.9379235 108.022477,23.2911005 108.471973,23.7572941 C108.93867,24.2423238 109.278085,24.7673802 109.51086,25.3560085 C109.752808,25.926978 109.866329,26.5320878 109.866329,27.1878198 C109.866329,27.8364881 109.752808,28.4498388 109.51086,29.0384671 L109.51086,29.0384671 Z M111.023323,31.9674814 C112.053036,30.7054624 112.566746,29.2150556 112.566746,27.5304014 C112.566746,26.5003019 112.376398,25.5302425 112.022076,24.6355275 C111.653994,23.7572941 111.108177,22.9520506 110.393799,22.2351014 C109.710381,21.545229 108.906563,21.0025137 108.009864,20.6375642 C107.094818,20.2690829 106.155692,20.0818991 105.154645,20.0818991 C104.170799,20.0818991 103.227086,20.2690829 102.330387,20.6375642 C101.439422,21.0025137 100.641337,21.5299247 99.9258121,22.2351014 C99.2423944,22.9226192 98.6988709,23.7149129 98.3330819,24.6084506 C97.9420661,25.5184699 97.7551583,26.4379073 97.7551583,27.3961942 C97.7551583,29.1385339 98.2723082,30.6901581 99.2882614,32.0016219 C100.285868,33.3013131 101.621743,34.1654195 103.25346,34.5892318 C104.470081,35.4721743 105.611022,36.1467423 106.693482,36.6105814 C107.813782,37.0956111 108.828589,37.3310624 109.752808,37.3310624 L110.022276,37.3310624 C110.109424,37.3310624 110.180517,37.3228216 110.247025,37.3075173 L110.355959,37.2910357 L112.391305,35.4568699 L112.236504,35.0153987 L112.12413,34.7375662 L111.855808,34.7987835 C111.592073,34.8564691 111.367325,34.8859005 111.150604,34.9106229 C110.948789,34.9471178 110.767615,34.9471178 110.591027,34.9471178 C110.064703,34.9471178 109.51086,34.8682416 108.924909,34.7234391 C108.566001,34.6186633 108.153198,34.4703289 107.715168,34.296095 C109.054484,33.7863429 110.180517,33.0223033 111.023323,31.9674814 L111.023323,31.9674814 Z M93.7440927,26.0023224 L93.7440927,26.0023224 L93.4493975,25.8375065 C92.6627791,25.3701356 92.0882955,24.9427915 91.7179198,24.5790192 C91.5321586,24.3883036 91.4060245,24.2281967 91.3349307,24.0845714 C91.2454901,23.9385916 91.2202633,23.8326385 91.2202633,23.7455215 C91.2328767,23.3923446 91.3441041,23.1545387 91.6594394,22.9226192 C91.9770681,22.6883451 92.388724,22.5576697 92.9460076,22.5576697 C93.4184373,22.5576697 93.8771069,22.6424321 94.3438032,22.8343249 C94.8185262,23.0403448 95.3448496,23.3499633 95.9158932,23.8043844 L96.4708834,24.2281967 L96.4708834,21.1932293 L96.3046157,21.0896307 C95.7622389,20.7847213 95.2175688,20.5492699 94.6728986,20.3879858 C94.1305218,20.2408287 93.5892917,20.1513572 93.0274215,20.1513572 C91.7924536,20.1513572 90.7317802,20.5057114 89.9073216,21.2085336 C89.0920364,21.912533 88.6631803,22.8637564 88.6631803,23.9609595 C88.6631803,24.7579622 88.8799017,25.4596071 89.3190778,26.0447036 C89.5656127,26.3543221 89.923375,26.6745359 90.4072714,27.0406627 C90.9060746,27.4268028 91.544772,27.849438 92.3187769,28.3379994 C92.8061134,28.6240728 93.1982759,28.8901328 93.5021445,29.111457 C93.8071598,29.3327812 94.0192944,29.5211423 94.1202018,29.6365134 C94.3311898,29.9002189 94.4114569,30.1639244 94.4343904,30.5182786 C94.4114569,30.9409137 94.2864695,31.2057964 93.9745742,31.4530203 C93.6752923,31.6884716 93.2177693,31.8332742 92.5905387,31.8332742 C92.0068816,31.8332742 91.4622115,31.7025987 90.9462082,31.4259434 C90.4382316,31.1587062 89.877508,30.6901581 89.2777976,30.0509077 L88.6780871,29.3845805 L88.6780871,32.9069322 L88.826008,33.006999 C89.3901716,33.46142 89.9887354,33.7992927 90.6228461,34.0029581 C91.2603969,34.2313458 91.9621613,34.3314127 92.7132328,34.3314127 C93.957374,34.3314127 95.0169008,33.9758812 95.832186,33.2742362 C96.6554979,32.5702368 97.084354,31.6296088 97.084354,30.5453555 C97.084354,29.6223864 96.873366,28.8136111 96.4158431,28.1555247 C95.9594668,27.4821339 95.0765279,26.7910843 93.7440927,26.0023224 L93.7440927,26.0023224 Z M68.7316932,31.2528867 C68.3762243,31.5307193 67.7203268,31.7214348 66.7640007,31.7025987 L64.3857989,31.7025987 L64.3857989,27.8918192 L66.4291719,27.8918192 C67.5024587,27.8918192 68.2466501,28.079003 68.6548661,28.3886215 C69.0619353,28.7041262 69.27407,29.1244068 69.27407,29.8425333 C69.27407,30.5453555 69.0906022,30.9656361 68.7316932,31.2528867 L68.7316932,31.2528867 Z M64.3857989,21.637055 L65.9899958,21.637055 C66.8328011,21.637055 67.385498,21.7924529 67.6870732,22.045563 C67.8338475,22.178593 67.9439282,22.3198638 68.0310754,22.5411881 C68.1033159,22.7483852 68.1480362,23.0132679 68.1480362,23.334659 C68.1480362,24.0398357 67.9439282,24.4777751 67.5299789,24.8003434 C67.1332297,25.1052529 66.4291719,25.3006775 65.4200988,25.3006775 L64.3857989,25.3006775 L64.3857989,21.637055 Z M69.4575379,26.161252 C69.8302069,25.9140281 70.1581557,25.6326638 70.3989572,25.2818414 C70.8037331,24.715581 70.9837609,24.0080498 70.9837609,23.2039835 C70.9837609,21.912533 70.5571982,20.8530021 69.6994861,20.1254576 C68.8440673,19.3920267 67.6756065,19.0576859 66.2021304,19.0576859 L61.6727682,19.0576859 L61.6727682,34.3125765 L66.9784287,34.3125765 C68.5035051,34.3125765 69.7556731,33.9311454 70.7028258,33.1541561 C71.6442451,32.3771667 72.1487817,31.2964452 72.1315816,29.9885131 C72.1315816,28.9760725 71.8105129,28.079003 71.2039223,27.3667628 C70.7441061,26.8393518 70.1581557,26.4379073 69.4575379,26.161252 L69.4575379,26.161252 Z M49.9422935,20.1254576 L47.1891292,20.1254576 L47.1891292,34.3125765 L56.8647643,34.3125765 L56.8647643,31.8944915 L49.9422935,31.8944915 L49.9422935,20.1254576 Z M38.8470761,27.9106553 L45.3177573,27.9106553 L45.3177573,25.3277544 L38.8470761,25.3277544 L38.8470761,21.6182189 L45.5012251,21.6182189 L45.5012251,19.0718129 L36.1065253,19.0718129 L36.1065253,34.3125765 L45.7167999,34.3125765 L45.7167999,31.7320301 L38.8470761,31.7320301 L38.8470761,27.9106553 Z" id="Fill-69"></path>
                </g>
            </g>
        </g>
    </g>
</svg>