<?xml version="1.0" encoding="UTF-8"?>
<svg width="267px" height="74px" viewBox="0 0 267 74" version="1.1" xmlns="http://www.w3.org/2000/svg" xmlns:xlink="http://www.w3.org/1999/xlink">
    <!-- Generator: Sketch 46.2 (44496) - http://www.bohemiancoding.com/sketch -->
    <title>Group 3</title>
    <desc>Created with Sketch.</desc>
    <defs></defs>
    <g id="Symbols" stroke="none" stroke-width="1" fill="none" fill-rule="evenodd">
        <g id="Header">
            <g id="Group" transform="translate(0.000000, -74.000000)">
                <g id="Header">
                    <g id="Group-3" transform="translate(0.000000, 74.000000)">
                        <g id="logo-UEB">
                            <rect id="Rectangle-6" fill="#FF7733" x="0" y="0" width="74" height="74"></rect>
                            <g id="isotipo" transform="translate(21.000000, 17.000000)" fill="#FFFFFF">
                                <path d="M14.4999733,40.65522 C11.3454732,32.7899688 10.2331995,24.6468851 10.2331995,16.2459822 C10.2331995,12.624741 10.4602409,8.99643622 11.047338,5.42463977 L14.0573572,5.42463977 C13.3303659,8.82220225 13.1044711,12.3057044 13.1044711,15.7750796 C13.1044711,23.0658295 13.9851167,30.8180641 16.0411032,37.8415768 C18.0947963,30.8180641 18.9765885,23.0658295 18.9765885,15.7750796 C18.9765885,12.3057044 18.7506938,8.82220225 18.0237025,5.42463977 L21.032575,5.42463977 C21.6219654,8.99643622 21.8455668,12.624741 21.8455668,16.2459822 C21.8455668,24.6468851 20.7355864,32.7899688 17.5810863,40.65522 L14.4999733,40.65522 Z" id="Fill-1"></path>
                                <g id="left" transform="translate(0.345504, 0.039868)">
                                    <path d="M4.958717,14.0546776 C4.68695527,13.8015674 4.26497925,13.8215808 4.01615099,14.1017679 C3.76732274,14.3819549 3.78796287,14.8151854 4.05857793,15.07065 C4.33263301,15.3261147 4.75460904,15.3049241 5.00343729,15.0259143 C5.25111887,14.74455 5.23162541,14.3113195 4.958717,14.0546776" id="circle-15"></path>
                                    <path d="M4.958717,16.1849234 C4.68695527,15.930636 4.26497925,15.9518266 4.01615099,16.2320136 C3.76732274,16.5122007 3.78796287,16.9454311 4.05857793,17.2008958 C4.33263301,17.4563605 4.75460904,17.4351699 5.00343729,17.1561601 C5.25111887,16.8747957 5.23162541,16.4415653 4.958717,16.1849234" id="circle-14"></path>
                                    <path d="M3.54544133,17.8470919 C3.27253292,17.5916273 2.85170357,17.6128179 2.60287532,17.8930049 C2.35290039,18.1743693 2.37354052,18.6064224 2.64530226,18.8618871 C2.91821066,19.1173518 3.33904001,19.0973384 3.59016161,18.8171514 C3.83669652,18.5369643 3.81834973,18.1025566 3.54544133,17.8470919" id="circle-13"></path>
                                    <path d="M5.37977569,23.403743 C5.10801395,23.1494556 4.68603793,23.1694689 4.43720968,23.449656 C4.18838143,23.729843 4.20902156,24.1642507 4.47963662,24.4197154 C4.7536917,24.6740028 5.17566772,24.6539895 5.42449597,24.3738024 C5.67217755,24.0936153 5.65268409,23.6592076 5.37977569,23.403743" id="circle-12"></path>
                                    <path d="M5.45144281,25.560477 C5.16706766,25.3203167 4.74623832,25.3626979 4.51231682,25.6558348 C4.27724866,25.9489717 4.31852892,26.3810248 4.60290407,26.6211852 C4.88957256,26.8625228 5.30810856,26.8189643 5.54317673,26.5270047 C5.77595155,26.2338678 5.73581796,25.8018146 5.45144281,25.560477" id="circle-11"></path>
                                    <path d="M4.09871152,27.2886897 C3.81204303,27.0532384 3.39121368,27.1026831 3.16187888,27.3981745 C2.93139741,27.6960204 2.97841105,28.1257191 3.26507954,28.3623477 C3.55518806,28.5989762 3.9760174,28.5495315 4.2053522,28.2528628 C4.434687,27.9561941 4.38767336,27.5253182 4.09871152,27.2886897" id="circle-10"></path>
                                    <path d="M3.96432133,22.0759153 C3.6925596,21.8216279 3.27058357,21.8428185 3.02175532,22.1230055 C2.77292707,22.4043699 2.7935672,22.836423 3.06532893,23.0918877 C3.33823734,23.3473524 3.76021336,23.3261618 4.00904162,23.0459747 C4.25786987,22.7657876 4.23722974,22.3325572 3.96432133,22.0759153" id="circle-9"></path>
                                    <path d="M6.74592306,32.6642786 C6.44434781,32.4441317 6.02925183,32.5171216 5.81482379,32.82674 C5.59924909,33.134004 5.67034287,33.5625254 5.96962478,33.7838496 C6.27120004,34.0028194 6.68744269,33.9298295 6.9030174,33.6213882 C7.11515208,33.3141243 7.04635164,32.8844256 6.74592306,32.6642786" id="circle-8"></path>
                                    <path d="M6.9026734,35.0492827 C6.59536477,34.8385538 6.18141546,34.9244935 5.97501415,35.238821 C5.76975951,35.5531485 5.85232003,35.9793154 6.15962866,36.1900443 C6.46579061,36.4007733 6.87973992,36.3160108 7.08614123,36.000506 C7.2902492,35.6861785 7.20998202,35.2600117 6.9026734,35.0492827" id="circle-7"></path>
                                    <path d="M5.16924635,31.5063291 C4.86881776,31.2861821 4.45257511,31.3603493 4.23814708,31.6687905 C4.02486572,31.978409 4.09481283,32.4057531 4.39638808,32.6247228 C4.69681667,32.8448698 5.11305932,32.7718799 5.32863403,32.4634387 C5.54076871,32.1538202 5.47196827,31.7252988 5.16924635,31.5063291" id="circle-6"></path>
                                    <path d="M1.93975376,10.8373531 C1.77807273,10.497126 1.38017686,10.3546779 1.0476414,10.5206711 C0.71510595,10.685487 0.576358399,11.0963496 0.736892756,11.4365767 C0.898573787,11.7779811 1.29646966,11.9204292 1.63015178,11.754436 C1.96268724,11.5884428 2.10143479,11.1775803 1.93975376,10.8373531" id="circle-5"></path>
                                    <path d="M1.39095559,8.70239832 C1.37146213,8.32449896 1.05956681,8.03371659 0.690337792,8.05137544 C0.321108772,8.07021154 0.0367336257,8.39160259 0.0562270833,8.76950195 C0.074573867,9.14975582 0.387615863,9.43936094 0.754551535,9.42170209 C1.12492723,9.40168873 1.40930238,9.08147494 1.39095559,8.70239832" id="circle-4"></path>
                                    <path d="M1.47168144,6.26112136 C1.54162855,5.88910829 1.30312037,5.53122229 0.938478041,5.45940964 C0.576129064,5.3899515 0.226393501,5.63364361 0.158739737,6.00565669 C0.0899392982,6.37884702 0.327300811,6.73555576 0.690796462,6.80736842 C1.05429211,6.87682655 1.40173433,6.63313444 1.47168144,6.26112136" id="circle-3"></path>
                                    <path d="M2.20956614,4.07330775 C2.39532733,3.74720768 2.28868665,3.32692708 1.96876461,3.13503426 C1.65113592,2.94431869 1.24062663,3.05380355 1.05486545,3.37990362 C0.869104265,3.70835821 0.976891619,4.12628429 1.29452031,4.31817711 C1.612149,4.51006994 2.02151161,4.40058507 2.20956614,4.07330775" id="circle-2"></path>
                                    <path d="M3.2901917,12.4669117 C3.01728329,12.2126243 2.59645394,12.2326376 2.34533234,12.5128247 C2.09650409,12.7930117 2.11714422,13.2262422 2.39005263,13.4817068 C2.66296103,13.7371715 3.08379038,13.7159809 3.33261864,13.4369711 C3.58144689,13.1556068 3.56195343,12.7223763 3.2901917,12.4669117" id="circle-1"></path>
                                    <path d="M5.96423541,2.0454833 C6.1763701,1.80767747 6.53527905,1.79119588 6.76805387,2.00781109 C6.99968201,2.2244263 7.01688212,2.59408486 6.80360076,2.83306795 C6.59261275,3.07087377 6.23255712,3.08853262 5.99978231,2.87074016 C5.76815416,2.65294769 5.75095405,2.28446638 5.96423541,2.0454833 M11.3375497,32.575278 L7.52141867,29.8146114 C7.2164034,29.5638557 7.16709641,29.1070802 7.41133797,28.7951072 L9.96268757,25.7295311 C10.4901576,25.1350165 10.4488773,24.2155791 9.86980698,23.6728638 L6.6740266,20.6849866 C6.38735811,20.4153949 6.36671798,19.9562648 6.62930632,19.6607734 L9.54185822,16.3821139 C10.0693282,15.7887765 10.0291947,14.8681619 9.4501243,14.3266239 L5.220044,10.358092 C4.64212032,9.8177312 4.65473373,8.93832054 5.12716341,8.30377925 L9.53153815,2.26680753 C9.96383424,1.68524279 9.93746074,1.00478849 9.454711,0.553899218 C9.21390946,0.327865956 8.73918644,0.0653377399 7.87000756,0.160695522 C3.71560774,0.619825586 0.929189982,4.35879247 1.38900625,8.68285586 C1.61834104,10.853717 2.37170584,11.6342381 2.78680182,12.0215555 L5.97226213,15.0070782 C6.26122397,15.2778472 6.2818641,15.7358 6.01812909,16.0312914 L3.10672386,19.309951 C2.58040051,19.9044655 2.6205341,20.8239029 3.19845778,21.3654409 L6.39309148,24.3556726 C6.68205332,24.6252644 6.70269345,25.0843945 6.43895844,25.3798859 L3.87499543,28.6785588 C3.38651231,29.3060365 3.48512628,30.2207649 4.09630351,30.7234534 L7.91816787,33.5229696 C8.22662317,33.7701935 8.28051685,34.2257918 8.03856864,34.5412965 L6.39194481,37.0676891 C5.93671524,37.7210665 6.08348951,38.6299086 6.71874689,39.0984567 C7.35515095,39.5658276 8.24038326,39.416316 8.6967595,38.7617613 L11.5783512,34.6178182 C12.0599543,33.9844542 11.9533136,33.0720803 11.3375497,32.575278" id="Fill-63"></path>
                                </g>
                                <g id="right" transform="translate(19.718911, 0.039868)">
                                    <path d="M7.07868186,14.0546776 C7.35159027,13.8015674 7.77241962,13.8215808 8.02239454,14.1017679 C8.2712228,14.3819549 8.25058266,14.8151854 7.97882093,15.07065 C7.70591253,15.3261147 7.2839365,15.3049241 7.03396158,15.0259143 C6.78742667,14.74455 6.80577345,14.3113195 7.07868186,14.0546776" id="circle-30"></path>
                                    <path d="M7.07868186,16.1849234 C7.35159027,15.930636 7.77241962,15.9518266 8.02239454,16.2320136 C8.2712228,16.5122007 8.25058266,16.9454311 7.97882093,17.2008958 C7.70591253,17.4563605 7.2839365,17.4351699 7.03396158,17.1561601 C6.78742667,16.8747957 6.80577345,16.4415653 7.07868186,16.1849234" id="circle-29"></path>
                                    <path d="M8.49184287,17.8470919 C8.76475128,17.5916273 9.18558063,17.6128179 9.43555555,17.8930049 C9.68438381,18.1743693 9.66489035,18.6064224 9.39198194,18.8618871 C9.11907353,19.1173518 8.69824419,19.0973384 8.44826926,18.8171514 C8.20058768,18.5369643 8.22008114,18.1025566 8.49184287,17.8470919" id="circle-28"></path>
                                    <path d="M6.65762318,23.403743 C6.93053158,23.1494556 7.35136093,23.1694689 7.60018919,23.449656 C7.85016411,23.729843 7.82952398,24.1642507 7.55776225,24.4197154 C7.28485384,24.6740028 6.86287782,24.6539895 6.61290289,24.3738024 C6.36636799,24.0936153 6.38471477,23.6592076 6.65762318,23.403743" id="circle-27"></path>
                                    <path d="M6.58595605,25.560477 C6.87147787,25.3203167 7.29116055,25.3626979 7.52622871,25.6558348 C7.76015021,25.9489717 7.72001662,26.3810248 7.4344948,26.6211852 C7.14897298,26.8625228 6.7292903,26.8189643 6.49422213,26.5270047 C6.26144732,26.2338678 6.30158091,25.8018146 6.58595605,25.560477" id="circle-26"></path>
                                    <path d="M7.93868734,27.2886897 C8.22650251,27.0532384 8.64618519,27.1026831 8.87666666,27.3981745 C9.10714813,27.6960204 9.06013449,28.1257191 8.77231932,28.3623477 C8.48335748,28.5989762 8.06252813,28.5495315 7.83319334,28.2528628 C7.60271187,27.9561941 7.6497255,27.5253182 7.93868734,27.2886897" id="circle-25"></path>
                                    <path d="M8.07307753,22.0759153 C8.34598594,21.8216279 8.76681529,21.8428185 9.01564354,22.1230055 C9.2644718,22.4043699 9.24497834,22.836423 8.97206993,23.0918877 C8.69916152,23.3473524 8.2771855,23.3261618 8.02835725,23.0459747 C7.78182234,22.7657876 7.80016913,22.3325572 8.07307753,22.0759153" id="circle-24"></path>
                                    <path d="M5.29262247,32.6642786 C5.59305106,32.4441317 6.00814704,32.5171216 6.22372174,32.82674 C6.43814978,33.134004 6.36820266,33.5625254 6.06777408,33.7838496 C5.76619883,34.0028194 5.34995617,33.9298295 5.13438147,33.6213882 C4.92339345,33.3141243 4.99104722,32.8844256 5.29262247,32.6642786" id="circle-23"></path>
                                    <path d="M5.13472547,35.0492827 C5.44318077,34.8385538 5.8559834,34.9244935 6.06238472,35.238821 C6.26763936,35.5531485 6.18507883,35.9793154 5.87777021,36.1900443 C5.57160825,36.4007733 5.15765895,36.3160108 4.95240431,36.000506 C4.74714966,35.6861785 4.82741684,35.2600117 5.13472547,35.0492827" id="circle-22"></path>
                                    <path d="M6.86815252,31.5063291 C7.1685811,31.2861821 7.58482375,31.3603493 7.79925179,31.6687905 C8.01253315,31.978409 7.94258603,32.4057531 7.64101078,32.6247228 C7.3405822,32.8448698 6.92433954,32.7718799 6.70876484,32.4634387 C6.49777682,32.1538202 6.56657726,31.7252988 6.86815252,31.5063291" id="circle-21"></path>
                                    <path d="M10.0976451,10.8373531 C10.2593261,10.497126 10.6583687,10.3546779 10.9909041,10.5206711 C11.3222929,10.685487 11.4621871,11.0963496 11.3005061,11.4365767 C11.1388251,11.7779811 10.7409292,11.9204292 10.4083938,11.754436 C10.0747116,11.5884428 9.93596408,11.1775803 10.0976451,10.8373531" id="circle-20"></path>
                                    <path d="M10.6463286,8.70239832 C10.6658221,8.32449896 10.9777174,8.03371659 11.3469464,8.05137544 C11.7173221,8.07021154 12.0016972,8.39160259 11.9822038,8.76950195 C11.963857,9.14975582 11.650815,9.43936094 11.2827327,9.42170209 C10.9135036,9.40168873 10.6291285,9.08147494 10.6463286,8.70239832" id="circle-19"></path>
                                    <path d="M10.5657174,6.26112136 C10.4957703,5.88910829 10.7354252,5.53122229 11.0989208,5.45940964 C11.4612698,5.3899515 11.8110054,5.63364361 11.8798058,6.00565669 C11.9486062,6.37884702 11.7100981,6.73555576 11.3477491,6.80736842 C10.9842534,6.87682655 10.6356645,6.63313444 10.5657174,6.26112136" id="circle-18"></path>
                                    <path d="M9.82886473,4.07330775 C9.64310354,3.74720768 9.7508909,3.32692708 10.0685196,3.13503426 C10.3861483,2.94431869 10.7966576,3.05380355 10.9824187,3.37990362 C11.1693266,3.70835821 11.0615393,4.12628429 10.7427639,4.31817711 C10.4251352,4.51006994 10.0157726,4.40058507 9.82886473,4.07330775" id="circle-17"></path>
                                    <path d="M8.74835384,12.4669117 C9.02126224,12.2126243 9.44323827,12.2326376 9.69206652,12.5128247 C9.94089477,12.7930117 9.92025464,13.2262422 9.64734624,13.4817068 C9.3755845,13.7371715 8.95360848,13.7159809 8.70478023,13.4369711 C8.45595197,13.1556068 8.47659211,12.7223763 8.74835384,12.4669117" id="circle-16"></path>
                                    <path d="M6.03727256,2.87074016 C5.80449774,3.08853262 5.44444211,3.07087377 5.2334541,2.83306795 C5.02017274,2.59408486 5.03851952,2.2244263 5.27014766,2.00781109 C5.50177581,1.79119588 5.86297811,1.80767747 6.07396612,2.0454833 C6.28610081,2.28446638 6.2689007,2.65294769 6.03727256,2.87074016 M4.16819397,0.160695522 C3.29786843,0.0653377399 2.8231454,0.327865956 2.58349054,0.553899218 C2.09959412,1.00478849 2.07322062,1.68524279 2.50666338,2.26680753 L6.91103813,8.30377925 C7.38232113,8.93832054 7.39722789,9.8177312 6.81930421,10.358092 L2.58693056,14.3266239 C2.0078602,14.8681619 1.96657994,15.7887765 2.49404997,16.3832911 L5.40889522,19.6607734 C5.67263023,19.9562648 5.65084343,20.4165721 5.36302826,20.6849866 L2.16724788,23.6728638 C1.58817753,24.2155791 1.54689726,25.1350165 2.07551397,25.7295311 L4.62686356,28.7951072 C4.86995845,29.1070802 4.82065147,29.5638557 4.51563619,29.8146114 L0.700651868,32.575278 C0.0848879427,33.0720803 -0.0228994111,33.9844542 0.459850333,34.6178182 L3.34029536,38.7629386 C3.79781828,39.416316 4.68190391,39.5658276 5.31830797,39.0984567 C5.95471203,38.6299086 6.10263297,37.7210665 5.64511006,37.0676891 L3.9996329,34.5412965 C3.75768469,34.2257918 3.81157837,33.7701935 4.12003367,33.5229696 L7.94075136,30.7234534 C8.55192859,30.2207649 8.65054255,29.3060365 8.16320611,28.6785588 L5.59809642,25.3798859 C5.33665476,25.0843945 5.35614821,24.6252644 5.64511006,24.3556726 L8.83859708,21.3654409 C9.41652076,20.8239029 9.45665435,19.9044655 8.930331,19.309951 L6.01892577,16.0312914 C5.75633743,15.7358 5.77697756,15.2778472 6.06479273,15.0082554 L9.25139971,12.0215555 C9.66534902,11.6342381 10.4198605,10.853717 10.650342,8.68285586 C11.1090116,4.35879247 8.32144712,0.619825586 4.16819397,0.160695522" id="Fill-66"></path>
                                </g>
                            </g>
                        </g>
                        <g id="Group-2" transform="translate(74.000000, 0.000000)">
                            <rect id="Rectangle" fill="#FFFFFF" x="0" y="0" width="193" height="74"></rect>
                            <path d="M15.833,36.1755 C18.0335,36.1755 19.6535,34.7985 19.6535,32.112 L19.6535,26.766 C19.6535,26.604 19.613,26.55 19.451,26.55 L18.803,26.55 C18.641,26.55 18.587,26.604 18.587,26.766 L18.587,32.0445 C18.587,34.2855 17.453,35.2305 15.833,35.2305 C14.213,35.2305 13.079,34.2855 13.079,32.0445 L13.079,26.766 C13.079,26.604 13.025,26.55 12.863,26.55 L12.2285,26.55 C12.0665,26.55 12.0125,26.5905 12.0125,26.766 L12.0125,32.112 C12.0125,34.7985 13.6325,36.1755 15.833,36.1755 Z M22.772,29.3445 C22.7045,29.1825 22.6505,29.1285 22.5425,29.1285 L22.205,29.1285 C22.0565,29.1285 22.0025,29.1825 22.0025,29.3445 L22.0025,35.784 C22.0025,35.946 22.0565,36 22.205,36 L22.8125,36 C22.961,36 23.015,35.946 23.015,35.784 L23.015,32.382 C23.015,31.032 23.771,29.898 24.9455,29.898 C26.039,29.898 26.849,30.681 26.849,32.2875 L26.849,35.784 C26.849,35.946 26.903,36 27.0515,36 L27.659,36 C27.8075,36 27.8615,35.946 27.8615,35.784 L27.8615,32.0175 C27.8615,29.8575 26.633,28.98 25.1885,28.98 C23.8655,28.98 23.1635,30.0195 22.88,30.5595 L22.772,29.3445 Z M30.44,35.784 C30.44,35.946 30.4805,36 30.6425,36 L31.2365,36 C31.3985,36 31.4525,35.946 31.4525,35.784 L31.4525,29.3445 C31.4525,29.1825 31.412,29.1285 31.2365,29.1285 L30.6425,29.1285 C30.4805,29.1285 30.44,29.1825 30.44,29.3445 L30.44,35.784 Z M30.224,26.874 C30.224,27.2655 30.5345,27.576 30.926,27.576 C31.3175,27.576 31.6415,27.2655 31.6415,26.874 C31.6415,26.4825 31.3175,26.172 30.926,26.172 C30.5345,26.172 30.224,26.4825 30.224,26.874 Z M36.3125,36.0405 C36.3935,36.1755 36.407,36.2295 36.4745,36.2295 L36.515,36.2295 C36.596,36.2295 36.6095,36.162 36.6905,36.0405 L39.8495,29.3445 C39.89,29.2365 39.863,29.1285 39.7145,29.1285 L39.0395,29.1285 C38.918,29.1285 38.8505,29.169 38.7695,29.3445 L36.5015,34.2855 L36.5015,34.272 L34.22,29.3445 C34.139,29.169 34.085,29.1285 33.9365,29.1285 L33.2615,29.1285 C33.14,29.1285 33.086,29.223 33.14,29.3445 L36.3125,36.0405 Z M46.6805,34.596 L46.937,34.9065 C47.0315,35.028 47.0315,35.109 46.937,35.2035 C46.3025,35.8245 45.209,36.1485 44.21,36.1485 C42.1715,36.1485 40.6055,34.542 40.6055,32.571 C40.6055,30.6 42.1715,28.98 44.1425,28.98 C46.2485,28.98 47.477,30.681 47.477,32.706 C47.477,32.868 47.45,32.922 47.2745,32.922 L41.645,32.922 C41.7395,34.1775 42.887,35.2575 44.2505,35.2575 C44.912,35.2575 45.722,35.055 46.37,34.5825 C46.5185,34.5015 46.5725,34.4745 46.6805,34.596 Z M41.672,32.22 L46.4375,32.22 C46.3835,31.005 45.506,29.8305 44.129,29.8305 C42.7385,29.8305 41.7125,31.005 41.672,32.22 Z M52.9985,29.979 C53.1605,29.979 53.201,29.9385 53.2415,29.7765 L53.3225,29.169 C53.3495,29.034 53.3225,28.98 53.1335,28.98 C51.2165,28.98 50.5955,30.1275 50.3255,30.6945 L50.1635,29.3445 C50.096,29.1825 50.042,29.1285 49.934,29.1285 L49.5965,29.1285 C49.448,29.1285 49.394,29.1825 49.394,29.3445 L49.394,35.784 C49.394,35.946 49.448,36 49.5965,36 L50.204,36 C50.3525,36 50.4065,35.946 50.4065,35.784 L50.4065,32.463 C50.4065,31.2075 51.2435,29.979 52.9985,29.979 Z M57.089,35.325 C56.198,35.325 55.4015,34.9875 54.8075,34.569 C54.6455,34.4475 54.578,34.515 54.5105,34.65 L54.3215,34.9875 C54.2405,35.136 54.2405,35.2035 54.362,35.2845 C55.361,35.946 56.4275,36.1485 57.143,36.1485 C58.8845,36.1485 59.9105,35.2575 59.9105,34.0155 C59.9105,32.706 58.6145,32.274 57.278,32.085 C56.0495,31.9095 55.3745,31.7745 55.3745,31.032 C55.3745,30.2895 55.928,29.8035 57.062,29.8035 C57.9395,29.8035 58.4525,30.006 59.1815,30.4515 C59.3435,30.5595 59.411,30.492 59.4785,30.357 L59.654,30.033 C59.7215,29.9115 59.7485,29.8305 59.5865,29.736 C58.6415,29.1555 57.71,28.98 57.008,28.98 C55.415,28.98 54.416,29.8035 54.416,31.086 C54.416,32.5035 55.6985,32.814 57.035,32.9895 C58.2635,33.165 58.9385,33.4755 58.9385,34.0695 C58.9385,34.758 58.3985,35.325 57.089,35.325 Z M62.111,35.784 C62.111,35.946 62.1515,36 62.3135,36 L62.9075,36 C63.0695,36 63.1235,35.946 63.1235,35.784 L63.1235,29.3445 C63.1235,29.1825 63.083,29.1285 62.9075,29.1285 L62.3135,29.1285 C62.1515,29.1285 62.111,29.1825 62.111,29.3445 L62.111,35.784 Z M61.895,26.874 C61.895,27.2655 62.2055,27.576 62.597,27.576 C62.9885,27.576 63.3125,27.2655 63.3125,26.874 C63.3125,26.4825 62.9885,26.172 62.597,26.172 C62.2055,26.172 61.895,26.4825 61.895,26.874 Z M70.967,30.5595 L70.967,26.253 C70.967,26.091 71.021,26.037 71.1695,26.037 L71.777,26.037 C71.9255,26.037 71.9795,26.091 71.9795,26.253 L71.9795,35.784 C71.9795,35.946 71.9255,36 71.777,36 L71.4665,36 C71.345,36 71.291,35.946 71.237,35.784 L71.129,34.5285 C70.7915,35.0415 70.0625,36.1485 68.4695,36.1485 C66.5795,36.1485 65.351,34.515 65.351,32.5575 C65.351,30.5865 66.5795,28.98 68.4695,28.98 C70.0625,28.98 70.805,30.1815 70.967,30.5595 Z M68.672,35.244 C70.076,35.244 70.9805,33.9075 70.9805,32.571 C70.9805,31.221 70.076,29.898 68.672,29.898 C67.2545,29.898 66.3635,31.167 66.3635,32.5575 C66.3635,34.056 67.2545,35.244 68.672,35.244 Z M74.936,30.087 C74.7605,30.1275 74.72,30.06 74.6795,29.898 L74.5715,29.493 C74.531,29.3445 74.5715,29.277 74.7335,29.223 C74.8955,29.1825 76.016,28.98 77.0555,28.98 C79.3235,28.98 79.9445,29.9925 79.9445,32.22 L79.9445,35.784 C79.9445,35.946 79.8905,36 79.742,36 L79.3505,36 C79.2425,36 79.1885,35.946 79.148,35.784 L79.094,34.866 C78.7295,35.3655 77.8385,36.1485 76.3805,36.1485 C75.0845,36.1485 73.9775,35.352 73.9775,33.9075 C73.9775,32.436 75.0845,31.7205 76.745,31.7205 C77.4605,31.7205 78.2435,31.9095 78.932,32.193 C78.932,30.492 78.4325,29.871 77.015,29.871 C76.151,29.871 75.449,29.9925 74.936,30.087 Z M76.9475,32.4765 C75.665,32.4765 74.99,32.9895 74.99,33.9075 C74.99,34.7445 75.5975,35.352 76.691,35.352 C77.6225,35.352 78.5,34.7175 78.932,34.083 L78.932,32.9625 C78.2435,32.679 77.717,32.4765 76.9475,32.4765 Z M87.167,30.5595 L87.167,26.253 C87.167,26.091 87.221,26.037 87.3695,26.037 L87.977,26.037 C88.1255,26.037 88.1795,26.091 88.1795,26.253 L88.1795,35.784 C88.1795,35.946 88.1255,36 87.977,36 L87.6665,36 C87.545,36 87.491,35.946 87.437,35.784 L87.329,34.5285 C86.9915,35.0415 86.2625,36.1485 84.6695,36.1485 C82.7795,36.1485 81.551,34.515 81.551,32.5575 C81.551,30.5865 82.7795,28.98 84.6695,28.98 C86.2625,28.98 87.005,30.1815 87.167,30.5595 Z M84.872,35.244 C86.276,35.244 87.1805,33.9075 87.1805,32.571 C87.1805,31.221 86.276,29.898 84.872,29.898 C83.4545,29.898 82.5635,31.167 82.5635,32.5575 C82.5635,34.056 83.4545,35.244 84.872,35.244 Z M100.3835,36 C100.5455,36 100.586,35.946 100.586,35.784 L100.586,35.2845 C100.586,35.1225 100.5455,35.0685 100.3835,35.0685 L95.2265,35.0685 L95.2265,31.6935 L100.1405,31.6935 C100.3025,31.6935 100.3565,31.6395 100.3565,31.4775 L100.3565,30.978 C100.3565,30.816 100.3025,30.762 100.1405,30.762 L95.2265,30.762 L95.2265,27.4815 L100.3835,27.4815 C100.532,27.4815 100.586,27.4275 100.586,27.2655 L100.586,26.766 C100.586,26.604 100.532,26.55 100.3835,26.55 L94.376,26.55 C94.214,26.55 94.16,26.604 94.16,26.766 L94.16,35.784 C94.16,35.946 94.214,36 94.376,36 L100.3835,36 Z M102.8135,35.784 C102.8135,35.946 102.8675,36 103.0295,36 L103.6235,36 C103.7855,36 103.826,35.946 103.826,35.784 L103.826,26.253 C103.826,26.091 103.7855,26.037 103.6235,26.037 L103.0295,26.037 C102.8675,26.037 102.8135,26.091 102.8135,26.253 L102.8135,35.784 Z M113.7485,36 L110.144,36 C109.982,36 109.928,35.9595 109.928,35.784 L109.928,26.766 C109.928,26.604 109.982,26.55 110.144,26.55 L113.411,26.55 C114.95,26.55 116.7185,27.1845 116.7185,29.169 C116.7185,30.357 115.76,30.9105 115.1795,31.1265 L115.1795,31.14 C115.706,31.302 117.0695,31.896 117.0695,33.3945 C117.0695,35.298 115.5305,36 113.7485,36 Z M110.9945,35.082 L113.6675,35.082 C115.301,35.082 115.976,34.4205 115.976,33.2865 C115.976,32.3685 115.031,31.6125 113.789,31.6125 L110.9945,31.6125 L110.9945,35.082 Z M110.9945,30.7215 L113.654,30.7215 C114.815,30.7215 115.6385,30.141 115.6385,29.2635 C115.6385,28.0215 114.734,27.468 113.3435,27.468 L110.9945,27.468 L110.9945,30.7215 Z M118.3115,32.571 C118.3115,30.6 119.891,28.98 121.862,28.98 C123.833,28.98 125.4125,30.6 125.4125,32.571 C125.4125,34.542 123.833,36.1485 121.862,36.1485 C119.891,36.1485 118.3115,34.542 118.3115,32.571 Z M121.862,35.244 C123.2795,35.244 124.4135,34.056 124.4135,32.571 C124.4135,31.086 123.2795,29.898 121.862,29.898 C120.458,29.898 119.324,31.086 119.324,32.571 C119.324,34.056 120.458,35.244 121.862,35.244 Z M129.503,35.325 C128.612,35.325 127.8155,34.9875 127.2215,34.569 C127.0595,34.4475 126.992,34.515 126.9245,34.65 L126.7355,34.9875 C126.6545,35.136 126.6545,35.2035 126.776,35.2845 C127.775,35.946 128.8415,36.1485 129.557,36.1485 C131.2985,36.1485 132.3245,35.2575 132.3245,34.0155 C132.3245,32.706 131.0285,32.274 129.692,32.085 C128.4635,31.9095 127.7885,31.7745 127.7885,31.032 C127.7885,30.2895 128.342,29.8035 129.476,29.8035 C130.3535,29.8035 130.8665,30.006 131.5955,30.4515 C131.7575,30.5595 131.825,30.492 131.8925,30.357 L132.068,30.033 C132.1355,29.9115 132.1625,29.8305 132.0005,29.736 C131.0555,29.1555 130.124,28.98 129.422,28.98 C127.829,28.98 126.83,29.8035 126.83,31.086 C126.83,32.5035 128.1125,32.814 129.449,32.9895 C130.6775,33.165 131.3525,33.4755 131.3525,34.0695 C131.3525,34.758 130.8125,35.325 129.503,35.325 Z M139.1825,38.538 L139.1825,34.569 C139.0205,34.947 138.278,36.1485 136.685,36.1485 C134.795,36.1485 133.5665,34.542 133.5665,32.571 C133.5665,30.6135 134.795,28.98 136.685,28.98 C138.278,28.98 139.007,30.087 139.3445,30.6 L139.4525,29.3445 C139.5065,29.1825 139.5605,29.1285 139.682,29.1285 L139.9925,29.1285 C140.141,29.1285 140.195,29.1825 140.195,29.3445 L140.195,38.538 C140.195,38.7 140.141,38.754 139.9925,38.754 L139.385,38.754 C139.2365,38.754 139.1825,38.7 139.1825,38.538 Z M136.8875,29.8845 C135.47,29.8845 134.579,31.0725 134.579,32.571 C134.579,33.9615 135.47,35.2305 136.8875,35.2305 C138.2915,35.2305 139.196,33.9075 139.196,32.5575 C139.196,31.221 138.2915,29.8845 136.8875,29.8845 Z M147.5255,35.784 C147.593,35.946 147.647,36 147.755,36 L148.0925,36 C148.241,36 148.295,35.946 148.295,35.784 L148.295,29.3445 C148.295,29.1825 148.241,29.1285 148.0925,29.1285 L147.485,29.1285 C147.3365,29.1285 147.2825,29.1825 147.2825,29.3445 L147.2825,32.7465 C147.2825,34.0965 146.5265,35.2305 145.352,35.2305 C144.2585,35.2305 143.4485,34.4475 143.4485,32.841 L143.4485,29.3445 C143.4485,29.1825 143.3945,29.1285 143.246,29.1285 L142.6385,29.1285 C142.49,29.1285 142.436,29.1825 142.436,29.3445 L142.436,33.111 C142.436,35.271 143.6645,36.1485 145.109,36.1485 C146.432,36.1485 147.134,35.109 147.4175,34.569 L147.5255,35.784 Z M156.3545,34.596 L156.611,34.9065 C156.7055,35.028 156.7055,35.109 156.611,35.2035 C155.9765,35.8245 154.883,36.1485 153.884,36.1485 C151.8455,36.1485 150.2795,34.542 150.2795,32.571 C150.2795,30.6 151.8455,28.98 153.8165,28.98 C155.9225,28.98 157.151,30.681 157.151,32.706 C157.151,32.868 157.124,32.922 156.9485,32.922 L151.319,32.922 C151.4135,34.1775 152.561,35.2575 153.9245,35.2575 C154.586,35.2575 155.396,35.055 156.044,34.5825 C156.1925,34.5015 156.2465,34.4745 156.3545,34.596 Z M151.346,32.22 L156.1115,32.22 C156.0575,31.005 155.18,29.8305 153.803,29.8305 C152.4125,29.8305 151.3865,31.005 151.346,32.22 Z" id="Universidad-El-Bosqu" fill="#008080"></path>
                            <path d="M16.427,49.272 C14.753,49.272 13.7945,47.7465 13.7945,46.275 C13.7945,44.7765 14.753,43.278 16.427,43.278 C17.264,43.278 17.9795,43.602 18.5735,44.2365 C18.776,44.439 18.8975,44.3985 19.0865,44.196 L19.9235,43.278 C20.1125,43.062 20.1665,42.9675 19.964,42.765 C19.1,41.9145 17.7365,41.3745 16.427,41.3745 C13.7675,41.3745 11.567,43.5885 11.567,46.275 C11.567,48.9615 13.7675,51.1755 16.427,51.1755 C17.7365,51.1755 19.1,50.6355 19.964,49.785 C20.1665,49.5825 20.1125,49.488 19.9235,49.272 L19.0865,48.354 C18.8975,48.1515 18.776,48.111 18.5735,48.3135 C17.9795,48.948 17.264,49.272 16.427,49.272 Z M21.044,47.571 C21.044,45.6 22.664,43.98 24.635,43.98 C26.606,43.98 28.226,45.6 28.226,47.571 C28.226,49.542 26.606,51.1485 24.635,51.1485 C22.664,51.1485 21.044,49.542 21.044,47.571 Z M24.635,49.353 C25.472,49.353 26.174,48.597 26.174,47.571 C26.174,46.545 25.472,45.816 24.635,45.816 C23.798,45.816 23.096,46.545 23.096,47.571 C23.096,48.597 23.798,49.353 24.635,49.353 Z M31.196,44.493 C31.0475,44.2365 30.98,44.1285 30.764,44.1285 L30.116,44.1285 C29.8325,44.1285 29.7515,44.2095 29.7515,44.493 L29.7515,50.6355 C29.7515,50.919 29.8325,51 30.116,51 L31.4525,51 C31.736,51 31.817,50.919 31.817,50.6355 L31.817,47.571 C31.817,46.3425 32.0735,45.816 32.9105,45.816 C33.7205,45.816 33.95,46.3425 33.95,47.571 L33.95,50.6355 C33.95,50.919 34.031,51 34.3145,51 L35.651,51 C35.9345,51 36.0155,50.919 36.0155,50.6355 L36.0155,47.166 C36.0155,44.682 34.976,43.98 33.437,43.98 C32.4785,43.98 31.9925,44.412 31.466,44.979 L31.196,44.493 Z M40.2005,49.569 C39.404,49.569 38.729,49.2045 38.324,48.9075 C38.054,48.705 37.973,48.84 37.838,49.083 L37.4465,49.758 C37.325,50.001 37.2845,50.109 37.5275,50.271 C38.5265,50.946 39.62,51.1485 40.3355,51.1485 C42.077,51.1485 43.2785,50.2575 43.2785,48.867 C43.2785,47.328 42.104,46.8825 40.6325,46.6935 C39.7955,46.5855 39.296,46.4505 39.296,46.14 C39.296,45.762 39.5525,45.5595 40.3355,45.5595 C41.132,45.5595 41.6315,45.8295 42.05,46.113 C42.3065,46.2885 42.401,46.1805 42.536,45.9375 L42.9275,45.2625 C43.049,45.0195 43.103,44.898 42.8465,44.7495 C41.807,44.1555 40.916,43.98 40.2005,43.98 C38.5265,43.98 37.352,44.871 37.352,46.2615 C37.352,47.733 38.5265,48.273 39.998,48.462 C40.835,48.57 41.3345,48.678 41.3345,48.9885 C41.3345,49.3665 40.916,49.569 40.2005,49.569 Z M49.3805,50.6355 C49.529,50.892 49.5965,51 49.8125,51 L50.4605,51 C50.744,51 50.825,50.919 50.825,50.6355 L50.825,44.493 C50.825,44.2095 50.744,44.1285 50.4605,44.1285 L49.124,44.1285 C48.8405,44.1285 48.7595,44.2095 48.7595,44.493 L48.7595,47.5575 C48.7595,48.786 48.503,49.3125 47.666,49.3125 C46.856,49.3125 46.6265,48.786 46.6265,47.5575 L46.6265,44.493 C46.6265,44.2095 46.5455,44.1285 46.262,44.1285 L44.9255,44.1285 C44.642,44.1285 44.561,44.2095 44.561,44.493 L44.561,47.9625 C44.561,50.4465 45.6005,51.1485 47.1395,51.1485 C48.098,51.1485 48.584,50.7165 49.1105,50.1495 L49.3805,50.6355 Z M52.85,50.6355 C52.85,50.919 52.931,51 53.2145,51 L54.551,51 C54.8345,51 54.9155,50.919 54.9155,50.6355 L54.9155,41.4015 C54.9155,41.118 54.8345,41.037 54.551,41.037 L53.2145,41.037 C52.931,41.037 52.85,41.118 52.85,41.4015 L52.85,50.6355 Z M61.2605,50.7975 C61.4765,50.6625 61.49,50.595 61.4495,50.3385 L61.2875,49.3935 C61.2335,49.029 61.166,49.0155 60.8285,49.1775 C60.599,49.2855 60.356,49.3125 60.1535,49.3125 C59.573,49.3125 59.2085,48.9345 59.2085,48.0705 L59.2085,45.7485 L60.923,45.7485 C61.2065,45.7485 61.2875,45.6675 61.2875,45.384 L61.2875,44.493 C61.2875,44.2095 61.2065,44.1285 60.923,44.1285 L59.2085,44.1285 L59.2085,42.8865 C59.2085,42.603 59.1275,42.522 58.844,42.522 L57.521,42.522 C57.2375,42.522 57.1565,42.603 57.1565,42.8865 L57.1565,44.1285 L56.8325,44.1285 C56.549,44.1285 56.468,44.2095 56.468,44.493 L56.468,45.384 C56.468,45.6675 56.549,45.7485 56.8325,45.7485 L57.1565,45.7485 L57.1565,48.1785 C57.1565,50.028 58.142,51.1485 59.924,51.1485 C60.0995,51.1485 60.707,51.1485 61.2605,50.7975 Z M62.462,47.571 C62.462,45.6 64.082,43.98 66.053,43.98 C68.024,43.98 69.644,45.6 69.644,47.571 C69.644,49.542 68.024,51.1485 66.053,51.1485 C64.082,51.1485 62.462,49.542 62.462,47.571 Z M66.053,49.353 C66.89,49.353 67.592,48.597 67.592,47.571 C67.592,46.545 66.89,45.816 66.053,45.816 C65.216,45.816 64.514,46.545 64.514,47.571 C64.514,48.597 65.216,49.353 66.053,49.353 Z M75.1385,46.0185 C75.4085,46.0185 75.476,45.9645 75.53,45.681 L75.7325,44.3175 C75.773,44.0745 75.746,43.98 75.4085,43.98 C74.0045,43.98 73.4915,44.4525 73.019,45.2355 L72.614,44.493 C72.4655,44.223 72.398,44.1285 72.182,44.1285 L71.534,44.1285 C71.2505,44.1285 71.1695,44.2095 71.1695,44.493 L71.1695,50.6355 C71.1695,50.919 71.2505,51 71.534,51 L72.8705,51 C73.154,51 73.235,50.919 73.235,50.6355 L73.235,47.7735 C73.235,46.815 73.7885,46.0185 75.1385,46.0185 Z M82.199,49.0695 L82.7255,49.731 C82.8875,49.9335 82.9415,50.0415 82.793,50.19 C82.172,50.811 81.0515,51.1485 80.0525,51.1485 C78.014,51.1485 76.4075,49.542 76.4075,47.571 C76.4075,45.6 78.014,43.98 79.985,43.98 C82.2935,43.98 83.36,45.816 83.36,47.8275 C83.36,48.1245 83.306,48.219 83.0225,48.219 L78.5405,48.219 C78.77,48.9075 79.3775,49.3935 80.093,49.3935 C80.4035,49.3935 80.9165,49.38 81.6725,49.0425 C81.9425,48.921 82.01,48.84 82.199,49.0695 Z M78.5945,46.9095 L81.254,46.9095 C81.119,46.3425 80.822,45.654 79.9445,45.654 C79.0265,45.654 78.716,46.3425 78.5945,46.9095 Z M87.167,49.569 C86.3705,49.569 85.6955,49.2045 85.2905,48.9075 C85.0205,48.705 84.9395,48.84 84.8045,49.083 L84.413,49.758 C84.2915,50.001 84.251,50.109 84.494,50.271 C85.493,50.946 86.5865,51.1485 87.302,51.1485 C89.0435,51.1485 90.245,50.2575 90.245,48.867 C90.245,47.328 89.0705,46.8825 87.599,46.6935 C86.762,46.5855 86.2625,46.4505 86.2625,46.14 C86.2625,45.762 86.519,45.5595 87.302,45.5595 C88.0985,45.5595 88.598,45.8295 89.0165,46.113 C89.273,46.2885 89.3675,46.1805 89.5025,45.9375 L89.894,45.2625 C90.0155,45.0195 90.0695,44.898 89.813,44.7495 C88.7735,44.1555 87.8825,43.98 87.167,43.98 C85.493,43.98 84.3185,44.871 84.3185,46.2615 C84.3185,47.733 85.493,48.273 86.9645,48.462 C87.8015,48.57 88.301,48.678 88.301,48.9885 C88.301,49.3665 87.8825,49.569 87.167,49.569 Z M101.639,51 C101.9225,51 102.0035,50.919 102.0035,50.6355 L102.0035,49.5015 C102.0035,49.218 101.9225,49.137 101.639,49.137 L97.346,49.137 L97.346,47.1795 L101.4635,47.1795 C101.747,47.1795 101.828,47.0985 101.828,46.815 L101.828,45.681 C101.828,45.3975 101.747,45.3165 101.4635,45.3165 L97.346,45.3165 L97.346,43.413 L101.639,43.413 C101.9225,43.413 102.0035,43.332 102.0035,43.0485 L102.0035,41.9145 C102.0035,41.631 101.9225,41.55 101.639,41.55 L95.51,41.55 C95.2265,41.55 95.1455,41.631 95.1455,41.9145 L95.1455,50.6355 C95.1455,50.919 95.2265,51 95.51,51 L101.639,51 Z M106.148,49.569 C105.3515,49.569 104.6765,49.2045 104.2715,48.9075 C104.0015,48.705 103.9205,48.84 103.7855,49.083 L103.394,49.758 C103.2725,50.001 103.232,50.109 103.475,50.271 C104.474,50.946 105.5675,51.1485 106.283,51.1485 C108.0245,51.1485 109.226,50.2575 109.226,48.867 C109.226,47.328 108.0515,46.8825 106.58,46.6935 C105.743,46.5855 105.2435,46.4505 105.2435,46.14 C105.2435,45.762 105.5,45.5595 106.283,45.5595 C107.0795,45.5595 107.579,45.8295 107.9975,46.113 C108.254,46.2885 108.3485,46.1805 108.4835,45.9375 L108.875,45.2625 C108.9965,45.0195 109.0505,44.898 108.794,44.7495 C107.7545,44.1555 106.8635,43.98 106.148,43.98 C104.474,43.98 103.2995,44.871 103.2995,46.2615 C103.2995,47.733 104.474,48.273 105.9455,48.462 C106.7825,48.57 107.282,48.678 107.282,48.9885 C107.282,49.3665 106.8635,49.569 106.148,49.569 Z M112.709,50.2305 L112.709,53.3895 C112.709,53.673 112.628,53.754 112.3445,53.754 L111.008,53.754 C110.7245,53.754 110.6435,53.673 110.6435,53.3895 L110.6435,44.493 C110.6435,44.2095 110.7245,44.1285 111.008,44.1285 L111.629,44.1285 C111.845,44.1285 111.9125,44.2365 112.061,44.493 L112.331,44.979 C112.9385,44.3445 113.6945,43.98 114.7205,43.98 C116.5025,43.98 117.8255,45.654 117.8255,47.5575 C117.8255,49.5285 116.5025,51.1485 114.7205,51.1485 C113.6945,51.1485 112.9115,50.5545 112.709,50.2305 Z M114.2345,45.7755 C113.3975,45.7755 112.6955,46.5315 112.6955,47.5575 C112.6955,48.5835 113.3975,49.3125 114.2345,49.3125 C115.0715,49.3125 115.7735,48.5835 115.7735,47.5575 C115.7735,46.5315 115.0715,45.7755 114.2345,45.7755 Z M124.643,49.0695 L125.1695,49.731 C125.3315,49.9335 125.3855,50.0415 125.237,50.19 C124.616,50.811 123.4955,51.1485 122.4965,51.1485 C120.458,51.1485 118.8515,49.542 118.8515,47.571 C118.8515,45.6 120.458,43.98 122.429,43.98 C124.7375,43.98 125.804,45.816 125.804,47.8275 C125.804,48.1245 125.75,48.219 125.4665,48.219 L120.9845,48.219 C121.214,48.9075 121.8215,49.3935 122.537,49.3935 C122.8475,49.3935 123.3605,49.38 124.1165,49.0425 C124.3865,48.921 124.454,48.84 124.643,49.0695 Z M121.0385,46.9095 L123.698,46.9095 C123.563,46.3425 123.266,45.654 122.3885,45.654 C121.4705,45.654 121.16,46.3425 121.0385,46.9095 Z M130.3265,49.3125 C129.4895,49.3125 128.7875,48.597 128.7875,47.571 C128.7875,46.545 129.4895,45.816 130.3265,45.816 C130.6505,45.816 131.15,45.843 131.5685,46.2345 C131.771,46.4235 131.879,46.3695 132.0815,46.1535 L132.7565,45.411 C132.932,45.2085 132.9725,45.141 132.824,44.9925 C132.1355,44.3175 131.258,43.98 130.3265,43.98 C128.3555,43.98 126.749,45.6 126.749,47.571 C126.749,49.542 128.3555,51.1485 130.3265,51.1485 C131.258,51.1485 132.1355,50.811 132.824,50.136 C132.9725,49.9875 132.932,49.92 132.7565,49.7175 L132.0815,48.975 C131.879,48.759 131.771,48.705 131.5685,48.894 C131.15,49.2855 130.6505,49.3125 130.3265,49.3125 Z M134.498,50.6355 C134.498,50.919 134.579,51 134.8625,51 L136.199,51 C136.4825,51 136.5635,50.919 136.5635,50.6355 L136.5635,44.493 C136.5635,44.2095 136.4825,44.1285 136.199,44.1285 L134.8625,44.1285 C134.579,44.1285 134.498,44.2095 134.498,44.493 L134.498,50.6355 Z M134.336,42.0765 C134.336,42.738 134.849,43.251 135.5105,43.251 C136.172,43.251 136.712,42.738 136.712,42.0765 C136.712,41.415 136.172,40.875 135.5105,40.875 C134.849,40.875 134.336,41.415 134.336,42.0765 Z M139.6145,45.9105 C139.3445,45.951 139.2905,45.843 139.223,45.573 L138.9935,44.6685 C138.926,44.3985 138.953,44.304 139.196,44.2365 C139.358,44.196 140.6405,43.98 141.5855,43.98 C144.488,43.98 144.785,45.249 144.785,47.2875 L144.785,50.6355 C144.785,50.919 144.704,51 144.4205,51 L143.651,51 C143.4485,51 143.3675,50.919 143.246,50.6355 L143.111,50.298 C142.706,50.6355 142.139,51.1485 140.789,51.1485 C139.655,51.1485 138.44,50.4465 138.44,48.8805 C138.44,47.4225 139.655,46.707 140.924,46.707 C141.356,46.707 142.22,46.8015 142.7195,46.9635 C142.7195,46.113 142.5575,45.735 141.491,45.735 C140.8025,45.735 140.0735,45.8295 139.6145,45.9105 Z M141.4505,48.138 C140.681,48.138 140.492,48.57 140.492,48.8805 C140.492,49.11 140.681,49.6095 141.4505,49.6095 C141.8825,49.6095 142.3145,49.3395 142.7195,48.9345 L142.7195,48.354 C142.2335,48.2325 141.8825,48.138 141.4505,48.138 Z M146.5805,50.6355 C146.5805,50.919 146.6615,51 146.945,51 L148.2815,51 C148.565,51 148.646,50.919 148.646,50.6355 L148.646,41.4015 C148.646,41.118 148.565,41.037 148.2815,41.037 L146.945,41.037 C146.6615,41.037 146.5805,41.118 146.5805,41.4015 L146.5805,50.6355 Z M150.833,50.6355 C150.833,50.919 150.914,51 151.1975,51 L152.534,51 C152.8175,51 152.8985,50.919 152.8985,50.6355 L152.8985,44.493 C152.8985,44.2095 152.8175,44.1285 152.534,44.1285 L151.1975,44.1285 C150.914,44.1285 150.833,44.2095 150.833,44.493 L150.833,50.6355 Z M150.671,42.0765 C150.671,42.738 151.184,43.251 151.8455,43.251 C152.507,43.251 153.047,42.738 153.047,42.0765 C153.047,41.415 152.507,40.875 151.8455,40.875 C151.184,40.875 150.671,41.415 150.671,42.0765 Z M159.9725,51 C160.256,51 160.337,50.919 160.337,50.6355 L160.337,49.569 C160.337,49.2855 160.256,49.2045 159.9725,49.2045 L157.529,49.2045 L160.3505,44.6955 C160.418,44.5875 160.472,44.5065 160.472,44.412 L160.472,44.25 C160.472,44.1555 160.445,44.1285 160.3505,44.1285 L154.964,44.1285 C154.6805,44.1285 154.5995,44.2095 154.5995,44.493 L154.5995,45.5595 C154.5995,45.843 154.6805,45.924 154.964,45.924 L157.3535,45.924 L154.451,50.433 C154.37,50.5545 154.3295,50.622 154.3295,50.7165 L154.3295,50.8785 C154.3295,50.973 154.3565,51 154.451,51 L159.9725,51 Z M162.632,45.9105 C162.362,45.951 162.308,45.843 162.2405,45.573 L162.011,44.6685 C161.9435,44.3985 161.9705,44.304 162.2135,44.2365 C162.3755,44.196 163.658,43.98 164.603,43.98 C167.5055,43.98 167.8025,45.249 167.8025,47.2875 L167.8025,50.6355 C167.8025,50.919 167.7215,51 167.438,51 L166.6685,51 C166.466,51 166.385,50.919 166.2635,50.6355 L166.1285,50.298 C165.7235,50.6355 165.1565,51.1485 163.8065,51.1485 C162.6725,51.1485 161.4575,50.4465 161.4575,48.8805 C161.4575,47.4225 162.6725,46.707 163.9415,46.707 C164.3735,46.707 165.2375,46.8015 165.737,46.9635 C165.737,46.113 165.575,45.735 164.5085,45.735 C163.82,45.735 163.091,45.8295 162.632,45.9105 Z M164.468,48.138 C163.6985,48.138 163.5095,48.57 163.5095,48.8805 C163.5095,49.11 163.6985,49.6095 164.468,49.6095 C164.9,49.6095 165.332,49.3395 165.737,48.9345 L165.737,48.354 C165.251,48.2325 164.9,48.138 164.468,48.138 Z M174.215,44.898 L174.215,41.4015 C174.215,41.118 174.296,41.037 174.5795,41.037 L175.916,41.037 C176.1995,41.037 176.2805,41.118 176.2805,41.4015 L176.2805,50.6355 C176.2805,50.919 176.1995,51 175.916,51 L175.295,51 C175.079,51 175.0115,50.892 174.863,50.6355 L174.593,50.1495 C173.9855,50.784 173.2295,51.1485 172.2035,51.1485 C170.4215,51.1485 169.0985,49.4745 169.0985,47.571 C169.0985,45.6 170.4215,43.98 172.2035,43.98 C173.2295,43.98 174.0125,44.574 174.215,44.898 Z M172.6895,49.353 C173.5265,49.353 174.2285,48.597 174.2285,47.571 C174.2285,46.545 173.5265,45.816 172.6895,45.816 C171.8525,45.816 171.1505,46.545 171.1505,47.571 C171.1505,48.597 171.8525,49.353 172.6895,49.353 Z M177.7385,47.571 C177.7385,45.6 179.3585,43.98 181.3295,43.98 C183.3005,43.98 184.9205,45.6 184.9205,47.571 C184.9205,49.542 183.3005,51.1485 181.3295,51.1485 C179.3585,51.1485 177.7385,49.542 177.7385,47.571 Z M181.3295,49.353 C182.1665,49.353 182.8685,48.597 182.8685,47.571 C182.8685,46.545 182.1665,45.816 181.3295,45.816 C180.4925,45.816 179.7905,46.545 179.7905,47.571 C179.7905,48.597 180.4925,49.353 181.3295,49.353 Z M188.8085,49.569 C188.012,49.569 187.337,49.2045 186.932,48.9075 C186.662,48.705 186.581,48.84 186.446,49.083 L186.0545,49.758 C185.933,50.001 185.8925,50.109 186.1355,50.271 C187.1345,50.946 188.228,51.1485 188.9435,51.1485 C190.685,51.1485 191.8865,50.2575 191.8865,48.867 C191.8865,47.328 190.712,46.8825 189.2405,46.6935 C188.4035,46.5855 187.904,46.4505 187.904,46.14 C187.904,45.762 188.1605,45.5595 188.9435,45.5595 C189.74,45.5595 190.2395,45.8295 190.658,46.113 C190.9145,46.2885 191.009,46.1805 191.144,45.9375 L191.5355,45.2625 C191.657,45.0195 191.711,44.898 191.4545,44.7495 C190.415,44.1555 189.524,43.98 188.8085,43.98 C187.1345,43.98 185.96,44.871 185.96,46.2615 C185.96,47.733 187.1345,48.273 188.606,48.462 C189.443,48.57 189.9425,48.678 189.9425,48.9885 C189.9425,49.3665 189.524,49.569 188.8085,49.569 Z" id="Consultores-Especial" fill="#008080"></path>
                        </g>
                    </g>
                </g>
            </g>
        </g>
    </g>
</svg>